<svg xmlns="http://www.w3.org/2000/svg" viewBox="0 0 261.41 139.25"><defs><style>.cls-1{fill:#b3b3b3;}.cls-2{fill:#bf202e;}.cls-3{fill:#232020;}</style></defs><title>gbes_logo</title><g id="Слой_2" data-name="Слой 2"><g id="Layer_1" data-name="Layer 1"><path class="cls-1" d="M160.53,118.53c4.95,0,10.12-2,10.12-6.17a6.79,6.79,0,0,0-2.52-5,117,117,0,0,0-25.7,5.43C148.51,116,154.33,118.53,160.53,118.53ZM166.65,106c-3.9-2.38-10.11-3.61-15.19-3.61a70.7,70.7,0,0,0-22.05,3.8c4.17,1.76,8,3.83,11.68,5.78A105.64,105.64,0,0,1,166.65,106Zm-39.19,20.64a12.54,12.54,0,0,0-4.56-.73c-1.56,0-3.47.23-3.47.91s1.44.85,3.43.77A15.26,15.26,0,0,0,127.46,126.61ZM130.07,116c3.38-1.23,6.81-2.61,10.41-3.87-3.69-1.91-7.51-4-11.67-5.74-3.13,1-6.39,2.22-9.42,3.37v0C123.55,111.29,127.68,113.51,130.07,116Zm-.48.15c-2.48-2.41-6.51-4.52-10.9-6-8.28,3.25-16.45,6.78-24.86,8.57,3.64,1.73,8.76,2.34,12.93,2.34C114.7,121.05,122,118.87,129.59,116.15Zm-11.72-6.93c3.13-1.18,6.51-2.41,9.72-3.45a51.61,51.61,0,0,0-19.31-3.71c-5,0-11,.84-15,3.1A100.88,100.88,0,0,1,117.87,109.22Zm-.65.31a104,104,0,0,0-24.35-4c-2.43,1.57-4,3.71-4,6.62,0,2.64,1.56,4.56,3.94,6C100.9,116.22,108.93,112.74,117.22,109.53Zm-36.11,10a49.85,49.85,0,0,0,11-1.26A7.2,7.2,0,0,1,88.36,112a7.64,7.64,0,0,1,3.77-6.51c-2-.08-4.08-.16-6.2-.16-6.69,0-19.84,1.23-19.84,7.47C66.09,117.61,75.25,119.48,81.11,119.48Zm43.66,17.16c0-1.38,1-2.53,2.21-3.52,1.43-1.23,3.09-2.27,3.09-3.72a3,3,0,0,0-2.13-2.61,14.83,14.83,0,0,1-5.12,1.12c-2.26.08-3.82-.16-3.82-1.12s2-1.41,4-1.41a12.7,12.7,0,0,1,5.08.92c2.26-1.12,3.86-2.87,3.9-5.36a5.93,5.93,0,0,0-1.73-4.06c-7.68,2.52-15.11,4.56-23.4,4.56-4.55,0-10-.69-13.75-2.57a50.91,50.91,0,0,1-10.33,1.07c-7.86,0-17.15-1.91-17.15-7.16,0-6.51,12.76-7.81,21-7.81,2,0,3.95,0,5.9.15,4.08-2.48,10.42-3.44,15.8-3.44a52.67,52.67,0,0,1,19.84,3.86,72.88,72.88,0,0,1,22.17-3.67c5.73,0,12.76,1.34,17,4.06,1.87-.16,3.48-.23,5.47-.23,13.67,0,22.49,4.52,23,11.79.43,5.82-5.3,9.3-11.73,9-3.9-.15-6.72-1.92-7.59-3s-.73-2.06-.43-2a3.93,3.93,0,0,0,.78,1.8c.86,1.19,3.64,2.68,7.24,2.84,6.17.31,11.64-2.91,11.21-8.62C194.77,110.68,186,107,176.37,107c-2.69,0-5.25.08-7.72.31a6.69,6.69,0,0,1,2.52,5.09c0,4.33-5.39,6.59-10.55,6.59-6.56,0-12.59-2.68-18.84-6-3.86,1.27-7.46,2.49-11.06,3.72a6.68,6.68,0,0,1,1.69,4.21c0,2.56-1.61,4.44-3.91,5.63a3.26,3.26,0,0,1,2,2.87c0,1.49-1.39,2.64-2.69,3.75s-2.61,2.11-2.61,3.49a2.41,2.41,0,0,0,1.65,2.3c.22.11.44.14.39.23s-.34.07-.51,0A2.71,2.71,0,0,1,124.77,136.64Z"/><path d="M136.7,31.43a8.18,8.18,0,0,0-8.21,7.89v.2a3.22,3.22,0,0,0,6.35.61l0-.17,0-.62a1.83,1.83,0,0,1,1.78-1.46,1.85,1.85,0,0,1,1.86,1.85V53.08a1.86,1.86,0,0,1-1.86,1.86,1.82,1.82,0,0,1-1.78-1.47l0-.61,0-.17a3.22,3.22,0,0,0-6.35.61v.2a8.21,8.21,0,0,0,16.42-.27V39.59A8.23,8.23,0,0,0,136.7,31.43Zm7.22,8.22v14l0,.36,0,.36-.06.35-.08.35-.1.34-.12.33-.13.33-.14.32-.16.3-.18.31-.19.29-.2.28-.21.27-.23.26-.24.25-.25.23-.26.23L141,59l-.29.2-.29.18-.3.17-.31.16-.32.14-.33.14-.33.11-.34.09-.35.08-.35.06-.36,0-.37,0h-.73l-.36,0-.35,0-.35-.06-.34-.08-.34-.09-.33-.11-.32-.12-.31-.14-.31-.16-.3-.16-.28-.18-.29-.2-.26-.2-.26-.22-.25-.23-.24-.24-.23-.25-.21-.27-.21-.26-.18-.29-.18-.29-.17-.3-.15-.3-.14-.32-.11-.32-.11-.33-.09-.34-.07-.34-.06-.35,0-.36,0-.36v-.33l0-.11,0-.1,0-.11,0-.1,0-.1,0-.1,0-.09,0-.09.06-.09.06-.09.06-.08L130,52l.07-.07.07-.08.08-.06.08-.08.08-.06.09,0,.09-.06.09,0,.09-.05.1,0,.1,0,.1,0,.1,0,.11,0,.11,0H132l.09,0,.1,0,.09,0,.09,0,.09,0,.09,0,.08,0,.08,0,.09.05.08,0,.07,0,.08.06.07,0,.07.06.07.06.07.07.05.07.07.06,0,.08.06.07.05.08,0,.08,0,.07,0,.09,0,.08,0,.09,0,.09,0,.09,0,.08,0,.09v0l0,.33v.29l.07.27.08.23.09.22.12.2.13.2.15.19.15.17.18.16.18.14.2.13.22.11.22.1.23.08.25,0,.24,0H137l.29,0,.27-.07.26-.1.25-.12.24-.14.21-.17.21-.18.18-.2.17-.22.14-.24.12-.25.1-.26.07-.27,0-.28V39.44l0-.28-.07-.27-.1-.27-.12-.24-.14-.24-.16-.22-.19-.2-.2-.19-.22-.16-.23-.14-.25-.13-.27-.09-.27-.07-.28,0-.29,0h-.26l-.24,0L136,37l-.24.07-.22.1-.21.11-.2.13-.19.14-.17.16-.16.17-.15.19-.13.2-.11.2-.1.23-.07.22-.07.27,0,.11v.19l0,.36,0,.08,0,.08,0,.09,0,.09,0,.09,0,.08,0,.08,0,.08,0,.08-.06.08-.05.07,0,.07-.07.07-.05.07-.07.06-.07.07-.07,0-.08.06-.07,0-.07.05-.09,0-.08,0-.08,0-.08,0-.09,0-.09,0-.09,0-.09,0-.1,0h-.72l-.1,0-.11,0-.1,0-.1,0-.1,0-.1,0-.09,0-.09,0-.09-.06-.09-.06-.08-.07-.09-.06-.07-.07-.07-.08-.07-.07-.07-.09-.06-.08-.06-.08-.06-.1,0-.09,0-.09,0-.1,0-.1,0-.1,0-.1,0-.11,0-.11v-.22h0v-.1l0-.36,0-.36.06-.35.07-.34.09-.34.11-.32L130,37l.13-.32.15-.3.17-.3.18-.29.18-.28.21-.27.21-.27.23-.24.24-.25.25-.23.26-.21.27-.21.28-.19.28-.18.3-.17.31-.15L134,33l.33-.12.32-.11.34-.09.34-.08.35-.06.35,0,.36,0h.73l.37,0,.36,0,.35.07.35.07.34.1.34.12.32.12.32.15.31.16.3.17.3.18.28.2.27.22.26.22.25.24.24.25.23.26.22.27.19.28.19.29.18.3.16.31.15.32.12.32.12.34.1.34.08.35.06.35,0,.36,0,.36v.43Zm-.88-.71,0-.31-.06-.31-.07-.31-.09-.3-.1-.29-.12-.28-.13-.29-.14-.27-.15-.26-.16-.26-.19-.25-.18-.24-.21-.23-.21-.22-.22-.21-.23-.2-.24-.18-.25-.18-.25-.17-.27-.15-.28-.14-.28-.12-.28-.12-.3-.1-.3-.08L138,33.4l-.31-.06-.32,0-.32,0h-.65l-.32,0-.31,0-.3,0-.3.07-.3.08-.29.1-.28.11-.28.12-.27.13-.27.15-.25.16-.24.17-.24.18-.23.2-.22.2-.21.21-.2.22-.19.23-.18.24-.17.25-.16.26-.14.26-.14.27-.11.28-.11.28-.09.3-.08.29-.07.3,0,.31,0,.31,0,.34h0v.23l0,.07v.06l0,.07,0,0,0,.06,0,.06,0,.06,0,.06,0,0,0,0,0,.05.05,0,0,0,.05.05,0,0,.05,0,0,0,.06,0,.05,0,.06,0,.06,0,.06,0,.07,0,.06,0h.06l.07,0H132l.05,0h.06l0,0,.06,0,.05,0,.05,0,0,0,.05,0,0,0,0,0,0,0,0,0,0,0,0,0,0,0,0,0,0,0,0,0,0-.05,0,0,0,0,0-.05,0,0,0-.05,0,0v-.06l0,0h0v-.49l0-.19.1-.36.1-.29.12-.28.16-.28.16-.25.19-.24.2-.23.23-.21.25-.19.26-.16.28-.15.29-.12.3-.1.31-.07.33,0,.33,0,.37,0,.37.06.35.09.34.12.33.16.31.19.28.21.27.24.23.26.21.28L140,38l.15.32.13.34.09.36.06.37v14.1l-.06.37-.09.36-.13.33-.15.33-.19.3-.21.29-.23.26-.27.24-.28.21-.31.19-.33.15-.34.13-.35.09-.37.06h-.7l-.33,0-.31-.07-.3-.1-.29-.12-.28-.15-.26-.17-.25-.19-.23-.2-.2-.23-.19-.24-.16-.25-.16-.28-.12-.28-.1-.29-.1-.37,0-.19v-.49h0l0,0V53l0,0,0-.06,0,0,0-.05,0,0,0-.05,0,0,0,0,0,0,0-.05,0,0,0,0,0,0,0,0,0,0,0,0,0,0-.05,0,0,0-.05,0-.05,0-.06,0h0l-.06,0H132l-.06,0h-.52l-.06,0h-.06l-.07,0-.06,0-.06,0-.06,0-.05,0-.06,0,0,0-.05,0,0,0-.05,0,0,0-.05.06,0,.05,0,0,0,.06,0,.05,0,.06,0,.06,0,.06,0,.06,0,.06v.07l0,.06v.23h0l0,.33,0,.32,0,.3.07.3.08.3.09.29.11.29.11.27.14.27.14.27.16.26.17.24.18.25.19.22.2.23.21.21.22.21.23.19.24.18.24.17.25.15.27.15.27.13.28.13.28.11.29.09.3.09.3.06.3.06.31,0,.32,0H137l.32,0,.32,0,.31-.06.31-.07.3-.09.3-.1.28-.11.28-.13.28-.14.27-.15.25-.16.25-.18.24-.19.23-.2.22-.21.21-.21.21-.24.18-.24.19-.24.16-.26.15-.26.14-.28.13-.27.12-.3.1-.28.09-.31.07-.3.06-.31,0-.32,0-.32V39.27Zm-.64,14.25v.32l0,.28,0,.29-.05.28-.06.27-.08.27-.09.26-.11.26-.11.24-.13.25-.14.24-.14.23-.16.22-.17.22-.18.2-.19.19-.2.19-.2.18-.22.17-.23.16-.23.15-.23.13-.25.13-.25.11-.26.1-.26.09-.27.07-.27.07-.28.05-.28,0-.3,0h-.58l-.28,0-.28,0-.28-.05-.26-.06-.27-.07-.25-.09-.26-.09-.24-.11-.25-.12-.23-.13-.23-.15-.22-.15-.22-.16-.2-.17-.19-.19-.19-.18-.19-.21-.16-.2-.16-.21-.16-.23-.13-.22-.14-.24-.11-.25-.11-.25-.09-.25-.09-.26-.07-.26-.05-.27,0-.28,0-.28,0-.29v-.25l0,0v0l0,0,0,0,0,0,0,0,0,0,0,0,0,0,0,0,0,0,0,0,0,0h0l0,0H132l0,0h0l0,0h0l0,0,0,0,0,0,0,0,0,0,0,0,0,0,0,0,0,0v0l0,0v.1h0v.44l0,.24.12.44.12.35.14.33.17.32.2.3.23.29.24.26.27.25.29.22.31.2.33.17.34.15.37.12.37.08.38,0,.4,0,.43,0,.43-.07.42-.11.41-.15.38-.18.36-.22.34-.25.31-.29.28-.3.25-.34.22-.36.18-.39.15-.4L141,54l.07-.43,0-.38V39.67l0-.38-.07-.43-.11-.43-.15-.4-.18-.39-.22-.35-.25-.34-.28-.31-.31-.28-.34-.25-.36-.22-.38-.19-.41-.15-.42-.1-.43-.07-.43,0-.4,0-.38,0-.37.08-.37.12-.34.14-.33.17-.31.21-.29.22-.27.24-.24.27-.23.28-.2.31-.17.32-.14.32-.12.35-.12.45,0,.24v.44h0v.11l0,0v0l0,0,0,0,0,0,0,0,0,0,0,0,0,0h0l0,0,0,0h0l0,0h0l0,0h-.5l0,0h-.09l0,0h0l0,0,0,0h0l0,0,0,0,0,0,0,0,0,0,0,0,0,0v0l0,0v-.25l0-.29,0-.27,0-.28.05-.27.07-.26.09-.26.09-.26.11-.25.11-.24.14-.24.13-.23.16-.22.16-.22.16-.2.19-.2.19-.19.19-.18.2-.17.22-.17.22-.15.23-.14.23-.13.25-.12.24-.11.26-.1.25-.09.27-.07.26-.06.28,0,.28,0,.28,0H137l.3,0,.28,0,.28.05.27.06.27.07.26.09.26.11.25.11.25.13.23.13.23.15.23.15.22.17.2.18.2.19.19.2.18.2.17.22.16.22.14.23.14.23.13.25.11.25.11.26.09.26.08.27.06.27.05.28,0,.28,0,.29V53.19ZM119.6,36h.08l0,0h0l0,0,0,0,0,0,0,0,0,0,0,0,0,0V38l0,.25.09.26.12.23.17.21.21.17.23.13.26.08.28,0,.28,0,.26-.08.24-.13.2-.17.17-.21.13-.23.08-.26,0-.25V35.65l0-.26-.06-.24-.06-.24-.1-.22-.11-.22-.12-.21-.15-.19L122,33.9l-.17-.16-.2-.14-.2-.12-.23-.1-.22-.07-.25-.05-.23,0H112.3l-.23,0-.25.05-.23.07-.22.1-.21.12-.18.14-.18.16-.16.17-.14.19-.13.21-.11.22-.09.22-.07.24-.06.24,0,.25V57.15l0,.25.06.25.07.23.09.23.11.22.13.2.14.19.16.17.18.17.18.13.21.13.22.1.23.07.25,0h8.62l.25,0,.22-.07.23-.1.2-.13.2-.13.17-.17.16-.17.14-.19.13-.2.11-.22.1-.23.06-.23,0-.25,0-.25V45.25l0-.22-.07-.23-.11-.23-.15-.21-.19-.18L122,44l-.26-.1-.27,0h-3l-.24,0L118,44l-.23.12-.21.17-.17.21-.13.24-.08.26,0,.27,0,.28.08.26.13.23.17.21.21.17.23.13.26.08.24,0H120v9.83l0,0,0,0,0,0,0,0,0,0,0,0,0,0,0,0H113l0,0,0,0,0,0,0,0,0,0,0,0,0,0,0,0V36.28l0,0,0,0,0,0,0,0,0,0,0,0,0,0h0l0,0h6.52Zm-6.39-.67a1.12,1.12,0,0,0-1.12,1.11V56.34a1.12,1.12,0,0,0,1.12,1.11h6.34a1.12,1.12,0,0,0,1.12-1.11l0-9.64a.68.68,0,0,0-.71-.7h-1.43a.72.72,0,0,1-.71-.72.71.71,0,0,1,.71-.7h2.88a.72.72,0,0,1,.7.71v11.6a1.85,1.85,0,0,1-1.65,2h-8.12a1.84,1.84,0,0,1-1.65-2v-21a1.84,1.84,0,0,1,1.65-2h8.12a1.85,1.85,0,0,1,1.65,2V38a.71.71,0,1,1-1.42,0V36.45a1.12,1.12,0,0,0-1.12-1.11Zm4.93,3.31.19.62.31.57.4.48.48.4.56.31.62.2.66.06.66-.06.62-.19.56-.31.5-.4.39-.48.31-.56.2-.62.05-.53V35.85l0-.36,0-.41-.09-.4-.11-.4-.16-.37-.18-.37-.21-.35-.25-.33-.28-.3-.32-.29-.35-.26-.38-.23-.42-.18-.44-.14-.47-.08-.4,0h-8.29l-.4,0-.47.08-.44.14-.42.18-.38.23-.35.25-.32.29-.28.31-.25.32-.21.35-.19.37-.15.37-.12.4-.09.4,0,.41,0,.36v21.1l0,.37,0,.41.09.4.11.39.16.38.18.37.22.34.24.33.28.31.32.28.35.26.38.22.42.19.44.14.47.09.41,0h8.27l.4,0,.48-.08.44-.14.42-.19.38-.22.35-.26.32-.28.28-.31.25-.33.22-.35.18-.37.15-.37.12-.39.09-.4,0-.41,0-.37V45.16l0-.48-.17-.57-.25-.52-.36-.49-.46-.43-.56-.35-.63-.23-.6-.08h-3.2l-.53.06-.62.19-.56.3-.48.4-.4.49-.31.55-.2.63-.06.65.06.66.2.62.29.56.4.49.48.41.56.3.62.2.25,0c0,.15,0,4.49,0,5.91a.43.43,0,0,1-.43.44H115.1a.43.43,0,0,1-.43-.44h0V38.35h0a.44.44,0,0,1,.43-.44h3v.21Zm-3.6-1.85h0a1,1,0,0,0-1,.92v0h0V55h0v0h0a1,1,0,0,0,1,.92h3.72a1,1,0,0,0,1-.92h0v0h0V47.46h-.76l-.37,0-.41-.13-.37-.21-.32-.26-.27-.33-.19-.36-.13-.42,0-.44,0-.43.13-.41.21-.37.27-.33.32-.26.37-.2.41-.12.36,0h3.07l.4.06.42.15.37.23.3.29.24.32.17.35.11.38,0,.33v12l0,.32-.07.31-.09.3-.12.29-.14.28-.17.27-.18.24-.21.23-.24.21-.26.19-.28.16-.3.14-.32.1-.34.06-.3,0h-8.21l-.3,0-.34-.07-.32-.1L111,60l-.28-.16-.26-.19-.23-.21-.21-.24-.19-.24-.17-.27-.13-.28-.12-.28-.09-.31-.07-.31,0-.32V35.57l0-.32.06-.31.09-.3.12-.29.14-.27.17-.27.18-.24.21-.24.24-.21.26-.19.28-.16.3-.14.32-.1.34-.06h8.81l.34.06.32.11.3.13.29.17.25.19.23.21.21.23.19.25.16.26.15.28.11.29.09.3.07.31,0,.32v2.5l0,.37-.13.41-.21.37-.26.32-.33.27-.37.19-.41.13-.44,0-.43,0-.42-.14-.37-.2-.32-.27-.26-.32-.2-.37-.13-.41,0-.36V36.8Zm20.29,12.6a3.18,3.18,0,1,0-3.18-3.18A3.19,3.19,0,0,0,134.83,49.4Zm0-5.45a2.28,2.28,0,1,1-2.28,2.27A2.27,2.27,0,0,1,134.83,44ZM97,27.13a1.38,1.38,0,1,0,1.38,1.38A1.38,1.38,0,0,0,97,27.13Zm0,2.09a.71.71,0,1,1,.71-.71A.71.71,0,0,1,97,29.22Zm66.45-8.7L130.59,2.18,97.94,20.52ZM130.59,3l30.23,16.9h-60.3Zm34.18,20.72H96.61A4.85,4.85,0,0,0,97,33.35a4.6,4.6,0,0,0,.91-.09V58.7H96.19v2.7H106.7V58.7H105V30.6h55a4.85,4.85,0,1,0,4.72-6.93ZM105.69,59.72v.67H97.21v-.67ZM99,58.7V32.91a4.22,4.22,0,0,0,.79-.47V58.7Zm1.46,0V31.86a4.87,4.87,0,0,0,.89-1.26h1.13V58.7Zm2.69,0V30.6h.77V58.7Zm-1.41-29.22a5,5,0,0,0,.1-.78h57.74l0,.17a4.86,4.86,0,0,0,.08.6Zm57.91-1.8,0,.33H101.8s0-.24,0-.32H99.13a2.67,2.67,0,0,1,.11.34h0v0h0s0,0,0,0v0h0s0,0,0,0h0v0h0v0h0v.21A2.28,2.28,0,1,1,97,26.23h67.36a2.28,2.28,0,1,1-2.27,2.28,1.41,1.41,0,0,1,0-.21h0v0h0a.06.06,0,0,1,0,0h0v0h0v0s0,0,0,0h0v0h0a2.56,2.56,0,0,1,.1-.34Zm4.78,4.59a3.63,3.63,0,0,1-1.26-.22L163,32l-.08,0a3.48,3.48,0,0,1-1.52-1.19,3.76,3.76,0,0,1-.75-2.08h.81a3,3,0,1,0,3.27-3.13l-.32,0H97l-.31,0a3,3,0,1,0,3.26,3.13h.82a3.71,3.71,0,0,1-1.15,2.53l-.19.17a3.17,3.17,0,0,1-.86.54,3.76,3.76,0,0,1-5.22-2.67,3.35,3.35,0,0,1-.09-.76,3.7,3.7,0,0,1,1.38-2.89l.27-.2,0,0,.24-.14.1,0,.19-.1L95.6,25l.14-.06.22-.06.06,0a3.76,3.76,0,0,1,1-.13h67.42a3.76,3.76,0,1,1,0,7.51ZM134.83,47.61a1.39,1.39,0,1,0-1.39-1.39A1.39,1.39,0,0,0,134.83,47.61Zm0-2.1a.71.71,0,0,1,0,1.42.71.71,0,0,1,0-1.42Zm34.42-23.89L130.64,0l0,0-.05,0L92.13,21.61v.81h77l.18,0v-.74Zm-74.33-.31,35.67-20,35.85,20ZM163.4,53.38v-.14l0-.07v-.06l0-.07,0-.06,0-.06,0-.06,0-.06,0-.06,0-.05,0-.06-.09-.09,0-.06-.05,0,0,0-.06,0,0,0-.06,0-.05,0-.06,0-.06,0-.06,0-.06,0-.06,0h-.06l-.07,0h-.51l-.06,0h-.06l-.06,0h0l-.05,0-.06,0,0,0-.05,0,0,0-.05,0-.05,0,0,0,0,0,0,0,0,0,0,0,0,.05,0,0,0,0,0,0,0,.05,0,0,0,.05,0,0V53l0,0v.06l0,0h0v.49l0,.19-.1.37-.1.29-.12.28-.14.28-.17.25-.19.24-.21.23-.23.2-.24.19-.27.17-.27.15-.29.12-.3.1-.32.07-.32,0h-.71l-.36-.06-.36-.09-.34-.13-.33-.15-.3-.19-.29-.21-.25-.24-.24-.26-.22-.29-.19-.3-.15-.33-.13-.33-.09-.36,0-.37,0-.33V39.68l0-.32,0-.37.09-.36.13-.34.15-.32.19-.31.22-.28.24-.26.25-.24.29-.21.3-.19.33-.16.34-.12.36-.09.36-.06.37,0,.34,0,.32,0,.32.07.3.1.29.12.27.15.27.16.24.19.23.21.21.23.19.24.17.25.14.28.12.28.1.29.1.36,0,.19v.49h0l0,0v.06l0,0v.05l0,0,0,.05,0,0,0,0,0,.05,0,0,0,0,0,0,0,0,0,0,0,0,0,0,0,0,.05,0,.05,0,0,0,.05,0,0,0,.06,0,.05,0,0,0h.06l.06,0h.5l.07,0h.07l.06,0,.06,0,.06,0,.06,0,.06,0,.06,0,.05,0,.06,0,0,0,.06,0,0-.05.05,0,0,0,.09-.1,0,0,0-.06,0-.06,0-.06,0-.06,0,0,0-.07,0-.06v-.07l0-.06v-.15h0l0-.34,0-.31-.05-.31-.06-.3-.08-.29-.1-.3-.1-.28-.12-.28-.13-.27-.15-.26-.16-.26-.16-.25-.18-.24-.19-.23-.2-.22-.22-.21-.21-.2-.23-.2-.24-.18-.25-.17-.25-.16L160,34l-.27-.13-.27-.12-.29-.11-.28-.1-.3-.08-.3-.07-.31,0-.31,0-.31,0h-.66l-.32,0-.32,0-.31.06-.31.07-.3.08-.29.1-.29.12-.28.12L154,34l-.27.15-.26.17-.25.18-.24.18-.23.2-.22.21-.21.22-.2.23-.2.24-.17.25-.17.26-.15.26-.14.27-.13.29-.12.28-.1.29-.08.3-.08.31-.06.31,0,.31,0,.33V53.55l0,.32,0,.32.06.31.08.3.08.31.1.28.12.3.13.27.14.28.15.26.17.26.17.24.2.24.2.24.21.21.22.21.23.2.24.19.25.18.26.16.27.15.27.14.28.13.29.11.29.1.3.09.31.07.31.06.32,0,.32,0h.66l.31,0,.31,0,.31-.06.3-.06.3-.09.28-.09.29-.11.27-.13.27-.13.27-.15.25-.15.25-.17.24-.18.23-.19.21-.21.22-.21.2-.23.19-.22.18-.25.16-.24.16-.26.15-.27.13-.27.12-.27.1-.29.1-.29.08-.3.06-.3.05-.3,0-.32,0-.33h0Zm-.69.3,0,.28,0,.28-.06.27-.07.26-.08.26-.09.25-.12.25-.11.25L162,56l-.14.22-.15.23-.16.21-.17.2-.18.21-.19.18-.2.19-.2.17-.22.16-.22.15-.23.15-.23.13-.24.12-.25.11-.25.09-.26.09-.27.07-.26.06-.28.05-.28,0-.28,0h-.58l-.29,0-.28,0-.29-.05-.27-.07-.27-.07-.26-.09-.26-.1-.25-.11-.24-.13-.24-.13-.23-.15-.23-.16-.21-.17-.21-.18-.2-.19-.19-.19-.18-.2-.16-.22-.16-.22-.15-.23-.14-.24-.13-.25-.11-.24-.11-.26-.09-.26-.07-.27-.07-.27-.05-.28,0-.29,0-.28V39.31l0-.29,0-.28.05-.28.07-.27.07-.27.09-.26.11-.26.11-.25.13-.25.14-.23.15-.23.16-.22.16-.22.18-.2.19-.2.2-.19.21-.18.21-.17.23-.15.23-.15.24-.13.24-.13.25-.11.26-.11.26-.09.27-.07.27-.06.29-.05.28,0,.29,0h.58l.28,0,.28,0,.28,0,.26.06.27.07.26.09.25.1.25.11.24.12.23.13.23.14.22.15.22.17.2.17.2.18.19.19.18.2.17.2.16.22.15.22.14.23.13.24.11.24.12.25.09.26.08.26.07.26.06.27,0,.28,0,.27,0,.29v.16l0,0v0l0,.06,0,0v0l0,0v0l0,0,0,0,0,0,0,0h0l0,0,0,0h0l0,0h-.09l0,0h-.5l0,0h0l0,0h0l0,0,0,0h0l0,0,0,0,0,0,0,0,0,0,0,0,0,0v-.08l0,0V39.6h0l0-.23v-.21l0-.24-.12-.45-.12-.35-.15-.32-.17-.32-.2-.31-.22-.28-.25-.27-.26-.24-.29-.22-.31-.21-.33-.17-.35-.14-.36-.12-.37-.08-.38,0-.4,0-.43,0-.44.07-.42.1-.41.15-.38.19-.36.22-.34.25-.3.28-.28.31-.26.34-.21.35L153,38l-.15.4-.11.43-.06.43,0,.38V53.15l0,.38.06.43.11.42.15.4.19.39.21.36.26.34.28.3.3.29.34.25.36.22.38.18.41.15.42.11.44.07.43,0,.4,0,.38,0,.37-.08.36-.12.35-.15.33-.17.31-.2.29-.22.26-.25.25-.26.22-.29.2-.3.17-.32.15-.33.12-.35.12-.44,0-.24v-.44h0v-.05l0,0v-.07l0,0,0,0,0,0,0,0,0,0,0,0,0,0,0,0,0,0h0l0,0h0l0,0h.62l.05,0,.06,0,0,0,0,0,0,0,0,0,0,0,0,0v0l0,0v0l0,0,0,.06v0l0,0v.16Zm1.66-23.79A1.38,1.38,0,1,0,163,28.51,1.38,1.38,0,0,0,164.37,29.89Zm0-2.09a.71.71,0,1,1-.71.71A.71.71,0,0,1,164.37,27.8ZM162,50.21a3.22,3.22,0,0,0-3.14,2.48l0,.17,0,.62A1.81,1.81,0,0,1,157,54.94a1.86,1.86,0,0,1-1.86-1.86V39.73A1.85,1.85,0,0,1,157,37.88a1.81,1.81,0,0,1,1.78,1.46l0,.61,0,.18a3.22,3.22,0,0,0,6.35-.61v-.2a8.21,8.21,0,0,0-16.42.27V53.23a8.21,8.21,0,0,0,16.42.27v-.2A3.21,3.21,0,0,0,162,50.21Zm2.23,3.21h0v0l0,.37,0,.35-.06.35-.07.34-.09.34-.1.33-.12.32-.14.32-.15.3-.16.31-.18.29-.19.28-.2.27-.22.26-.23.25-.24.24-.24.23-.26.22-.28.21-.27.19-.29.18-.3.16-.31.16-.31.14-.32.12-.33.11-.33.09-.34.08-.35.06-.36,0-.36,0h-.73l-.37,0-.36,0-.35-.06-.35-.08-.34-.1-.33-.11-.33-.13-.32-.14-.31-.16-.3-.17-.29-.18-.29-.2-.26-.22-.27-.23-.25-.23-.24-.26-.23-.25-.21-.27-.2-.29-.19-.29-.18-.3-.16-.3-.15-.32-.12-.33-.12-.33L150,55l-.08-.35-.06-.35,0-.36,0-.37V39.22l0-.36,0-.36.06-.36.09-.34.09-.35.12-.33.12-.32.16-.32.15-.31.18-.3.19-.29.2-.28.21-.27.23-.26.24-.25.25-.24.27-.22.26-.22.29-.2.29-.19.3-.16.32-.17.31-.14.33-.12.33-.12.34-.1.36-.07.35-.07.35,0,.37,0h.74l.36,0,.35,0,.35.06.34.08.34.09.32.11.32.12.32.14.3.15.3.17.29.18.28.19.27.21.26.21.25.23.24.25.22.25.22.26.2.27.19.28.18.29.16.3.15.31.14.31.12.33.1.33.09.33.07.34.06.35,0,.36,0,.36v.23l0,.1v.12l0,.1,0,.1,0,.11,0,.09-.05.1,0,.1-.05.09-.06.09-.06.08-.06.09-.07.08-.07.08-.07.07-.07.07-.08.06-.09.07-.08.06-.09.06-.1,0-.09,0-.1.05-.1,0-.1,0-.1,0-.1,0-.11,0h-.72l-.09,0-.1,0-.09,0-.09,0-.08,0-.09,0-.08,0-.08,0-.08,0-.08-.05-.07-.06-.08-.05-.07-.06-.06-.06-.07-.06-.06-.07-.06-.07-.06-.07-.05-.07-.06-.08,0-.08-.05-.08,0-.08,0-.08,0-.09,0-.09,0-.09,0-.09,0-.08v0l0-.21v-.41l-.07-.27-.08-.22-.09-.22-.12-.21-.12-.2-.15-.18-.16-.18-.17-.16-.19-.14-.21-.13-.2-.11-.22-.09-.24-.08-.24,0-.25,0H157l-.29,0-.28,0-.28.07-.26.09-.25.13-.23.14-.22.16-.21.18-.18.21-.16.22-.15.23-.11.25-.1.26-.07.28,0,.28V53.37l0,.28.08.28.09.26.12.25.15.23.16.23.18.2.2.18.22.17.24.14.25.12.26.1.27.06.29.05h.54l.24,0,.24,0,.24-.08.22-.1.21-.1.21-.13.18-.15.18-.16.16-.17.14-.19.13-.19.12-.21.09-.22.08-.22.07-.27v-.41l0-.25,0-.08,0-.09,0-.09,0-.08,0-.09,0-.08,0-.09.05-.08,0-.08.06-.07.05-.07.06-.08.06-.06.06-.07.07-.07.07-.06.07-.06.07,0,.08-.06.07,0,.08,0,.08-.05.09,0,.08,0,.09,0,.08,0,.09,0,.1,0,.09,0,.1,0h.62l.11,0,.1,0,.1,0,.11,0,.1,0,.09,0,.1.05.09,0,.09.06.08.06.09.06.08.07.07.06.08.08.07.08.06.08.07.08,0,.09.06.09.05.09,0,.09.05.1,0,.1,0,.1,0,.11,0,.1v.11l0,.11v.19Z"/><path class="cls-1" d="M79.94,43.27c0-3.39-4.28-5.73-9.51-6.25s-11.56,1-13.5,4.69c4.94,1.72,10.21,4.42,17.21,4.86,2.65.16,5.8-.56,5.8-3.26Zm.32,0c0,3.54-4,4.49-6.72,4.33-6.61-.43-11.8-3.54-16.79-5.41a5.82,5.82,0,0,0-.39,2.11c0,5.05,6.89,8.71,14.21,9.18,6.82.44,13.43-.83,13.79-4.45a2.15,2.15,0,0,0-1.42-2.34c-.2-.09-.42-.16-.35-.36s.28-.12.53,0a2.58,2.58,0,0,1,.95.75,2.79,2.79,0,0,1,.61,2c-.32,3.9-7,5.53-14.18,5.09S56,49.67,56,44.3a6.28,6.28,0,0,1,.42-2.23,18,18,0,0,0-6.15-1.27c-3.32,0-5,1.83-5,3.82a3.55,3.55,0,0,0,2,3.42c.49.23.67.23.63.32s-.42,0-.74-.09a3.81,3.81,0,0,1-2.62-3.74c0-2.1,2.09-4.09,5.77-4.09a21.11,21.11,0,0,1,6.33,1.15c2-4,8.34-5.68,14-5.12,5.48.55,9.62,3.26,9.62,6.76Z"/><path class="cls-1" d="M71.45,50.16c-8.13,0-18.52,1.7-25,4.91,10.64,2,20.26,4.94,29.16,5.14,6.12.14,13.79-.85,13.79-4.7,0-4.7-10.46-5.35-17.92-5.35ZM0,69C0,58.57,14.15,53.13,27.4,53.13A97.41,97.41,0,0,1,45.85,55c6.58-3.4,17.29-5.25,25.71-5.25,7.64,0,18.2.89,18.2,5.76,0,4.22-8,5.18-14.14,5.07C66.4,60.41,56,57.83,45,56.09c-3,1.77-4.88,4.12-4.88,6.61a3.2,3.2,0,0,0,1.41,2.82.7.7,0,0,1,.22-.4,2.65,2.65,0,0,1,1.66-.93,1.5,1.5,0,0,1,0,1.17A1.33,1.33,0,0,1,42,66a3.11,3.11,0,0,1-2.3-3.3c0-2.49,1.83-4.87,4.74-6.72a111.08,111.08,0,0,0-16.83-1.45C13.82,54.53.46,58.78.46,69c0,7.49,8,11.54,16.62,11.54,8.13,0,17.46-3,17.46-9.71,0-4.94-5.8-7.05-10.85-7.05-4.85,0-11.53,1.23-11.53,5.69a3.47,3.47,0,0,0,2.2,3.16c1.12.38,1.62.14,1.62.32s-.84.23-1.7,0a3.76,3.76,0,0,1-2.51-3.41c0-4.83,6.48-7.08,11.84-7,5.56.1,11.35,3.06,11.35,8.34,0,6.91-9.5,10.18-18,10.18-8.7,0-17-4.18-17-12Z"/><path class="cls-1" d="M181.48,43.31c0,2.7,3.14,3.42,5.79,3.26,7-.44,12.27-3.14,17.22-4.86-2-3.73-8.17-5.24-13.5-4.69s-9.51,2.86-9.51,6.25Zm-.32-.08c0-3.5,4.14-6.21,9.61-6.76,5.7-.56,12.06,1.11,14,5.12a21,21,0,0,1,6.33-1.15c3.67,0,5.76,2,5.76,4.09a3.81,3.81,0,0,1-2.62,3.74c-.31.13-.71.25-.74.09s.14-.09.64-.32a3.56,3.56,0,0,0,1.94-3.42c0-2-1.66-3.82-5-3.82A18,18,0,0,0,205,42.07a6.28,6.28,0,0,1,.43,2.23c0,5.37-7.21,9.34-14.49,9.82S177.06,52.93,176.74,49a2.78,2.78,0,0,1,.6-2,2.66,2.66,0,0,1,.95-.75c.26-.12.5-.12.53,0s-.14.27-.35.36a2.42,2.42,0,0,0-.85.55,2.23,2.23,0,0,0-.56,1.79c.35,3.62,7,4.89,13.79,4.45,7.31-.47,14.2-4.13,14.2-9.18a5.82,5.82,0,0,0-.38-2.11c-5,1.87-10.18,5-16.79,5.41-2.73.16-6.72-.79-6.72-4.33Z"/><path class="cls-1" d="M189.93,50.16c-7.46,0-17.93.65-17.93,5.35,0,3.85,7.67,4.84,13.79,4.7,8.91-.2,18.53-3.1,29.17-5.14-6.47-3.21-16.86-4.91-25-4.91Zm71.48,18.9c0,7.81-8.27,12-17,12-8.48,0-18-3.27-18-10.18,0-5.28,5.8-8.24,11.35-8.34,5.37-.07,11.84,2.18,11.84,7A3.76,3.76,0,0,1,247.13,73c-.85.27-1.7.2-1.7,0s.5.06,1.63-.32a3.48,3.48,0,0,0,2.19-3.16c0-4.46-6.68-5.69-11.52-5.69-5.06,0-10.87,2.11-10.87,7.05,0,6.71,9.34,9.71,17.48,9.71C253,80.58,261,76.53,261,69c0-10.26-13.35-14.51-27.18-14.51A111.21,111.21,0,0,0,216.93,56c2.91,1.85,4.74,4.23,4.74,6.72,0,1.94-1.23,3.2-2.3,3.3a1.33,1.33,0,0,1-1.41-.64,1.45,1.45,0,0,1,0-1.17,2.67,2.67,0,0,1,1.66.93.73.73,0,0,1,.21.4,3.18,3.18,0,0,0,1.42-2.82c0-2.49-1.92-4.84-4.88-6.61-11,1.74-21.4,4.32-30.62,4.49-6.19.11-14.14-.85-14.14-5.07,0-4.87,10.57-5.76,18.21-5.76,8.41,0,19.13,1.85,25.7,5.25A97.52,97.52,0,0,1,234,53.13c13.25,0,27.39,5.44,27.39,15.91Z"/><path d="M130.7,72.13h0Z"/><path class="cls-2" d="M48.17,68.55a.34.34,0,0,0-.2-.16l-.06,0a.58.58,0,0,0-.14,0c-.71,0-1.56.07-2.45.07-.56,0-1.37,0-2.33-.07l-.1,0-.06,0a.38.38,0,0,0-.16.14l0,.06a.38.38,0,0,0,0,.17h.25c.63,0,.68.5.68,1.32v5.24c0,.78,0,1.76-.57,1.84l-.09,0-.06,0a.33.33,0,0,0-.16.18.22.22,0,0,0,0,.1v.07h0v0h.49a2.73,2.73,0,0,0,.49-.06l.54,0c.23,0,.45,0,.68,0a3.43,3.43,0,0,0,.56.06H46a.37.37,0,0,0,0-.2s0,0,0,0a.36.36,0,0,0-.14-.13l-.05,0-.07,0h-.17c-.83,0-.86-1.06-.86-2.19V71.37c0-.29,0-.75.11-2.47H46c.45,0,1.35,0,1.36.92,0,.12,0,.23,0,.41,0,0,0,0,0,.07l0,0a.45.45,0,0,0,.35.21h.05c.17-.6.31-1.23.43-1.9l0-.06Z"/><path class="cls-3" d="M52.28,71.59a3.09,3.09,0,0,0-3.23,3.11,2.93,2.93,0,0,0,3.08,3,3.21,3.21,0,0,0,3.21-3.24A2.9,2.9,0,0,0,52.28,71.59Zm0,5.67c-1.44,0-2.17-1.67-2.17-3A2,2,0,0,1,52,72.05c1.23,0,2.24,1.32,2.24,3.08A1.92,1.92,0,0,1,52.32,77.26Z"/><path class="cls-3" d="M59,77.72a3.58,3.58,0,0,0,3.87-3.38c0-1.59-.92-2.75-2.24-2.75a3.86,3.86,0,0,0-2.37,1.12q0-.34.09-.69a.2.2,0,0,0,0-.07l0,0a.37.37,0,0,0-.33-.22h-.15a7.85,7.85,0,0,1-1.52.21l-.13,0s-.05,0-.07,0a.27.27,0,0,0-.11.1l0,0a.29.29,0,0,0,0,.09v.12h.54c.92,0,1,.38,1,2.07v4.35c0,.81,0,1.86-.68,1.86h-.09l-.06,0,0,0a.34.34,0,0,0-.12.12l0,0a.45.45,0,0,0,0,.19h.62c.18,0,.37,0,.54-.06h.67c.17,0,.36,0,.54.06h.88v0a.5.5,0,0,0,0-.16.38.38,0,0,0-.15-.17l0,0-.06,0h-.34c-.67,0-.7-1-.7-1.86v-1C58.62,77.72,58.81,77.72,59,77.72Zm-.61-4.67a2.09,2.09,0,0,1,1.48-.75c.88,0,1.9.59,1.9,2.38a2.53,2.53,0,0,1-2.34,2.67,3.05,3.05,0,0,1-1-.17Z"/><path class="cls-3" d="M67,71.59A3.09,3.09,0,0,0,63.8,74.7a2.93,2.93,0,0,0,3.08,3,3.19,3.19,0,0,0,3.2-3.24A2.89,2.89,0,0,0,67,71.59Zm0,5.67c-1.44,0-2.17-1.67-2.17-3a2,2,0,0,1,1.84-2.24C68,72.05,69,73.37,69,75.13A1.93,1.93,0,0,1,67.07,77.26Z"/><path d="M71.23,79.53v0l0,0Z"/><path class="cls-3" d="M76.92,77.38a.11.11,0,0,0,0,0,.34.34,0,0,0-.25-.25l-.06,0-.19,0a.3.3,0,0,1-.15,0,.35.35,0,0,1-.12,0c-.08-.06-.14-.21-.66-1.57-.25-.63-1-2.67-1.36-3.85H74a.56.56,0,0,0-.23,0l0,0a.28.28,0,0,0-.09.1.35.35,0,0,0-.05.08l0,0a.42.42,0,0,1,0,.06c-.51,1.74-.89,2.62-1.3,3.73-.35.93-.54,1.26-.68,1.34a.64.64,0,0,1-.3.06h-.16l-.06,0a.47.47,0,0,0-.23.26h0l0,.07a.39.39,0,0,0,0,.06v1.58a.51.51,0,0,0,0,.13l0,.07a.38.38,0,0,0,.25.22.24.24,0,0,0,.13,0h0c.11-1.92.78-1.91,1.59-1.91h0l.79,0,.5,0c1.43,0,1.84.14,1.84.76a6.3,6.3,0,0,1-.21,1.14s0,0,0,0h0a.31.31,0,0,0,.27,0,.09.09,0,0,0,.06,0,.35.35,0,0,0,.12-.1l.06-.08s0,0,0,0c.27-.85.38-1.25.59-1.81A.23.23,0,0,0,76.92,77.38Zm-2.83-.31H72.22A37.86,37.86,0,0,0,73.65,73h0c.35,1.26.93,3,1.36,4.09Z"/><path d="M83.18,76.56l0,0a.35.35,0,0,0-.31-.15h0l-.09,0a2.39,2.39,0,0,1-1.38.49A2.52,2.52,0,0,1,80,76.58a2.83,2.83,0,0,1-1.21-2.51c0-1.71,1.14-2,1.66-2a1.11,1.11,0,0,1,1,.54.3.3,0,0,1,.07.08l0,0a.27.27,0,0,0,.07.08.39.39,0,0,0,.34.15H82l.09,0,.17-.14.05,0,0,0,.08-.09a.41.41,0,0,0,.1-.3s0-.05,0-.07a.25.25,0,0,0,0-.07,1.8,1.8,0,0,0-1.38-.53,3.19,3.19,0,0,0-3.28,3.2,2.9,2.9,0,0,0,2.85,2.93c.85,0,.93-.34,2.53-1.14v0Z"/><path d="M86.78,77.59h0Z"/><path d="M85.42,77.51l.36,0a4.35,4.35,0,0,0,.52.06h.47a.43.43,0,0,0,0-.21l0,0a.18.18,0,0,0-.07-.08l0,0,0,0h0c-.55,0-.62-.6-.64-.86,0-.41-.05-.78-.07-1.17v-1.5c0-1,0-1.54.75-1.54h.16a.37.37,0,0,0,0-.17l0-.06a.28.28,0,0,0-.12-.12l0,0-.06,0h-.24c-.17,0-.35,0-.51.06h-.63c-.18,0-.34-.06-.52-.06h-.36l-.07,0,0,0a.36.36,0,0,0-.14.13.09.09,0,0,0,0,.06.27.27,0,0,0,0,.17h0a1.18,1.18,0,0,1,.38-.06c.63,0,.64.69.65,1.6v1.52c0,1.22-.08,1.56-.24,1.75a.69.69,0,0,1-.56.27h-.06a.05.05,0,0,0,0,0h0a.22.22,0,0,0-.08.09.09.09,0,0,0,0,.07.3.3,0,0,0,0,.18h.62a4.18,4.18,0,0,0,.51-.06Z"/><path d="M86.35,74.56l0,0h0a6.71,6.71,0,0,1,1.19,1.25c.59.74,1.21,1.88,2.11,1.88a2.14,2.14,0,0,0,1-.32v0a0,0,0,0,0,0,0c0-.06-.06-.12-.18-.16h-.12a.25.25,0,0,1-.12,0c-.52,0-1-.77-1.24-1.1-.8-1.21-1.32-1.58-1.84-1.75,1.34-1.14,1.37-1.32,2-1.8a1.6,1.6,0,0,1,1-.41h.21a.35.35,0,0,0,0-.16l0-.06a.32.32,0,0,0-.13-.13l0,0-.08,0H90c-.5,0-.77.1-1.06.1l-.18,0-.34-.06-.08,0-.07,0A.5.5,0,0,0,88,72,.25.25,0,0,0,88,72a.89.89,0,0,0,0,.11h.1c.2,0,.32.12.32.21C88.41,72.59,88,73.05,86.35,74.56Z"/><path class="cls-3" d="M94.62,71.59a3.1,3.1,0,0,0-3.23,3.11,2.93,2.93,0,0,0,3.08,3,3.2,3.2,0,0,0,3.21-3.24A2.89,2.89,0,0,0,94.62,71.59Zm0,5.67c-1.44,0-2.18-1.67-2.18-3a2,2,0,0,1,1.85-2.24c1.23,0,2.24,1.32,2.24,3.08A1.91,1.91,0,0,1,94.67,77.26Z"/><path class="cls-3" d="M101.77,71.59a3.06,3.06,0,0,0-3.15,3.11,2.91,2.91,0,0,0,2.69,3c.88,0,1.18-.33,2.75-1.15v0s0,0,0,0a.37.37,0,0,0-.29-.15h0l-.11,0a2.91,2.91,0,0,1-1.53.46,2.47,2.47,0,0,1-2.34-2.72,1.62,1.62,0,0,1,0-.22c.7,0,1.46.1,2.3.1.62,0,1.14,0,1.67,0l.12,0,.07,0a.47.47,0,0,0,.19-.18s0,0,0,0a.31.31,0,0,0,0-.09A2.24,2.24,0,0,0,101.77,71.59Zm.1,2-2.13,0a1.68,1.68,0,0,1,1.61-1.62,1.57,1.57,0,0,1,1.56,1.62Z"/><path class="cls-2" d="M112.1,72.36c-.38,0-.77,0-1.15,0v-.67c0-.47,0-.94.1-2.75h1.67c.4,0,1,0,1,.83a3.15,3.15,0,0,1,0,.46s0,0,0,0a.05.05,0,0,1,0,0,.55.55,0,0,0,.35.19h0a13.73,13.73,0,0,0,.45-1.85s0,0,0-.08,0,0,0-.05a.35.35,0,0,0-.21-.18l-.06,0a.58.58,0,0,0-.14,0c-.6,0-1.49.07-2.45.07-.57,0-1.15,0-1.72,0l-.6,0-.11,0-.06,0a.34.34,0,0,0-.21.3s0,0,0,0v0h.26c.61,0,.68.73.68,1.58,0,.24,0,.47,0,.7v4.32c0,.8,0,1.6-.57,1.78h0l-.13.05,0,0a.36.36,0,0,0-.18.26.31.31,0,0,0,0,.09s0,0,0,0h.5c.43,0,1-.11,1.25-.11.6,0,.7.19,1.82.19A2.75,2.75,0,0,0,115.44,75C115.44,73.39,114.34,72.37,112.1,72.36Zm.21,4.86c-1.25,0-1.37-.74-1.37-1.52,0-.2,0-.42,0-.61v-2.3h.48c1.5,0,2.83.67,2.83,2.41A1.87,1.87,0,0,1,112.31,77.22Z"/><path class="cls-3" d="M123.14,71.59A3.07,3.07,0,0,0,120,74.33h-.77c-.25,0-.49,0-.74,0v-.6c0-1.42.22-1.53.82-1.54h.14V72l0-.1a.36.36,0,0,0-.15-.15l-.08,0-.11,0h-.21c-.19,0-.39,0-.58.06h-.5c-.19,0-.39-.06-.59-.06h-.32l-.08,0-.07,0a.28.28,0,0,0-.12.12l0,0a.7.7,0,0,0,0,.12v0s0,0,0,0h.27c.68,0,.77.34.77,2.31v.67c0,1-.07,2.07-.69,2.07h-.08l0,0,0,0a.34.34,0,0,0-.13.17.27.27,0,0,0,0,.15v0h.58c.17,0,.34,0,.51,0l.37,0a2.19,2.19,0,0,1,.36,0c.17,0,.35,0,.53,0h.45v0a.32.32,0,0,0-.15-.3l0,0-.08,0c-.69-.06-.59-.89-.62-2.42.24,0,.48,0,.73,0s.49,0,.74,0a2.93,2.93,0,0,0,3.2,3,3.11,3.11,0,0,0,3.08-3.24A2.86,2.86,0,0,0,123.14,71.59Zm0,5.67c-1.3,0-2.1-1.52-2.11-3a2,2,0,0,1,1.82-2.23c1.08,0,2.27,1.1,2.27,3A2,2,0,0,1,123.12,77.26Z"/><path d="M119.41,77.59h0Z"/><path d="M126.78,72.28v0h0l0,0Z"/><path class="cls-3" d="M129.82,77.72a3.59,3.59,0,0,0,3.88-3.38c0-1.59-.93-2.75-2.24-2.75a3.88,3.88,0,0,0-2.38,1.12c0-.2,0-.41.08-.6a.24.24,0,0,0,0-.13s0,0,0-.06a.43.43,0,0,0-.34-.24h-.14a9.25,9.25,0,0,1-1.23.19h-.2a.48.48,0,0,0-.18,0s0,0-.07,0a.33.33,0,0,0-.15.19.47.47,0,0,0,0,.15v0h.51c.92,0,1,.38,1,2.07v4.35c0,.81,0,1.86-.68,1.86h-.09l-.06,0,0,0a.51.51,0,0,0-.13.12.08.08,0,0,1,0,0,.33.33,0,0,0,0,.19h.61c.19,0,.38,0,.55-.06h.66l.55.06h.86s0,0,0,0a.32.32,0,0,0,0-.13.35.35,0,0,0-.16-.2l0,0-.07,0h-.32c-.67,0-.71-1-.71-1.86v-1C129.42,77.72,129.62,77.72,129.82,77.72Zm-.61-4.67a2.11,2.11,0,0,1,1.48-.75c.89,0,1.9.59,1.9,2.38a2.52,2.52,0,0,1-2.33,2.67,3.07,3.07,0,0,1-1-.17Z"/><path class="cls-3" d="M137.84,71.59a3.09,3.09,0,0,0-3.23,3.11,2.92,2.92,0,0,0,3.08,3,3.19,3.19,0,0,0,3.2-3.24A2.89,2.89,0,0,0,137.84,71.59Zm0,5.67c-1.44,0-2.17-1.67-2.17-3a2,2,0,0,1,1.84-2.24c1.23,0,2.24,1.32,2.24,3.08A1.91,1.91,0,0,1,137.88,77.26Z"/><path class="cls-2" d="M153.79,72.66c0-2.83-2.21-4.53-4.9-4.54-.95,0-1.51.19-2.42.19h-.11l-.19,0a.16.16,0,0,0-.09,0,.42.42,0,0,0-.29.25s0,0,0,.06a.32.32,0,0,0,0,.15h0a5.32,5.32,0,0,1,0,.6c0,.46,0,.82,0,1.1h0a.42.42,0,0,0,.36-.12l0-.06s0-.09,0-.12v0h0a1.53,1.53,0,0,1,.93-1.32,3.53,3.53,0,0,1,1.43-.27c2.79,0,3.73,2.23,3.81,3.89l-1.31,0h-1.41c-.7,0-1.18-.05-1.28-.74l0-.06,0,0a.41.41,0,0,0-.11-.07l-.09,0h-.15s0,0,0,0h0a13,13,0,0,1,.15,1.57v.62c0,.11,0,.22,0,.33v0a.58.58,0,0,0,.19,0l.07,0,.08-.07a.13.13,0,0,1,0-.05s0,0,0-.08c.08-.79.81-.79,1.63-.82l1,0,1.25,0v.44a3.81,3.81,0,0,1-2.34,3.57,4.07,4.07,0,0,1-1.39.19,3.12,3.12,0,0,1-2.68-1.43h0l0,0v0l-.09-.1s0,0,0,0a.59.59,0,0,0-.3-.12h-.29c.35,1.24,1.39,2.21,3.71,2.21A4.79,4.79,0,0,0,153.79,72.66Z"/><path d="M157.27,74.56l0,0h0a7,7,0,0,1,1.19,1.25c.58.74,1.2,1.88,2.11,1.88a2.14,2.14,0,0,0,1-.3v-.06a.22.22,0,0,0-.17-.17h-.22c-.52,0-1-.77-1.24-1.1-.81-1.21-1.32-1.58-1.84-1.75,1.33-1.14,1.36-1.32,2-1.8a1.6,1.6,0,0,1,1-.41h.18v0a.41.41,0,0,0,0-.1.38.38,0,0,0-.17-.22l-.06,0-.07,0h0c-.5,0-.78.1-1.07.1l-.18,0-.34-.06-.08,0-.07,0a.36.36,0,0,0-.19.17l0,.07a.45.45,0,0,0,0,.11h.1c.19,0,.32.12.32.21C159.33,72.59,158.87,73.05,157.27,74.56Z"/><polygon points="157.69 72.13 157.69 72.13 157.69 72.13 157.69 72.13"/><path d="M157.66,77.59v0a.25.25,0,0,0,0-.14.28.28,0,0,0-.14-.17l-.05,0-.18-.06h0c-.36-.14-.41-.6-.42-.82,0-.41-.06-.78-.07-1.17s0-.5,0-.76,0-.5,0-.74c0-1,0-1.54.75-1.54h.12v0a.26.26,0,0,0,0-.11.32.32,0,0,0-.15-.21l0,0-.06,0h-.21c-.16,0-.34,0-.5.06H156c-.18,0-.34-.06-.52-.06h-.37l-.07,0,0,0a.34.34,0,0,0-.14.12l0,0a.29.29,0,0,0,0,.09v.1h0a1.14,1.14,0,0,1,.38-.06c.63,0,.64.69.65,1.6v1.52c0,1.22-.09,1.56-.24,1.75a.72.72,0,0,1-.53.27l-.07,0,0,0a.45.45,0,0,0-.14.13l0,.07a.62.62,0,0,0,0,.13h.61a4.6,4.6,0,0,0,.52-.06l.36,0,.37,0a4.12,4.12,0,0,0,.52.06Z"/><path d="M165.19,77.72c.84,0,.92-.34,2.52-1.14,0,0,0,0,0,0l0,0a.36.36,0,0,0-.3-.16h-.06l-.08,0a2.44,2.44,0,0,1-2.71.15,2.81,2.81,0,0,1-1.21-2.5c0-1.71,1.14-2,1.66-2a1.12,1.12,0,0,1,.95.54l.07.08,0,0,.07.08a.38.38,0,0,0,.34.13h.07a.34.34,0,0,0,.13-.09h0l.11-.08.06,0,0,0,.08-.09a.38.38,0,0,0,.1-.32.15.15,0,0,0,0-.07.3.3,0,0,0,0-.08,1.86,1.86,0,0,0-1.37-.51,3.2,3.2,0,0,0-3.28,3.2A2.91,2.91,0,0,0,165.19,77.72Z"/><path d="M170,77.51l.38,0a2.84,2.84,0,0,0,.51.06h.43s0,0,0,0,0,0,0,0a.33.33,0,0,0-.2-.29s0,0-.06,0l-.14,0h0c-.41-.12-.46-.62-.46-1.17,0-.19,0-.39,0-.57v-2.1l0-1.07c.5,0,.89,0,1.41,0s.91,0,1.41,0l0,1.07v2.1c0,.18,0,.38,0,.57,0,.58-.07,1.11-.54,1.18h0a.13.13,0,0,0-.08,0,.09.09,0,0,0-.07,0,.37.37,0,0,0-.21.22.38.38,0,0,0,0,.1v0h.49a2.84,2.84,0,0,0,.51-.06l.37,0,.38,0a2.84,2.84,0,0,0,.51.06h.57v0a.37.37,0,0,0-.2-.3l0,0a.35.35,0,0,0-.11,0c-.66,0-.68-.88-.68-1.88V73.59c0-1.23.25-1.46.82-1.46h.22V72a.38.38,0,0,0-.16-.24l-.05,0-.06,0c-2.08.08-1.32.13-3.1.13s-1,0-3.1-.13l-.07,0,0,0a.45.45,0,0,0-.16.19.83.83,0,0,0,0,.13v0h.24c.56,0,.81.23.81,1.44v1.75c0,1,0,1.86-.7,1.86h0l-.08,0s0,0-.07,0a.45.45,0,0,0-.16.14.14.14,0,0,0,0,.06.2.2,0,0,0,0,.11h0v0h.62a3,3,0,0,0,.51-.06Z"/><path d="M171.37,77.58h0Z"/><path class="cls-3" d="M179.47,71.59a3.06,3.06,0,0,0-3.14,3.11,2.9,2.9,0,0,0,2.69,3c.88,0,1.17-.33,2.75-1.15,0,0,0,0,0,0s0,0,0,0a.39.39,0,0,0-.3-.15h-.05a.24.24,0,0,0-.1,0,2.91,2.91,0,0,1-1.53.46,2.48,2.48,0,0,1-2.35-2.72c0-.07,0-.15,0-.22.7,0,1.47.1,2.31.1.52,0,1,0,1.43,0h.13a.7.7,0,0,0,.27,0l.07,0a.27.27,0,0,0,.15-.15.14.14,0,0,1,0-.06.2.2,0,0,0,0-.11A2.24,2.24,0,0,0,179.47,71.59Zm.1,2-2.13,0a1.69,1.69,0,0,1,1.61-1.62,1.58,1.58,0,0,1,1.57,1.62Z"/><path class="cls-3" d="M185.52,77.72a3.58,3.58,0,0,0,3.87-3.38c0-1.59-.92-2.75-2.24-2.75a3.8,3.8,0,0,0-2.37,1.12c0-.23.05-.45.09-.67,0,0,0-.05,0-.08l0,0a.38.38,0,0,0-.33-.23h-.15a8.92,8.92,0,0,1-1.24.19h0l-.18,0a.74.74,0,0,0-.18,0l-.08,0a.42.42,0,0,0-.17.34v0H183c.92,0,1,.38,1,2.07v4.35c0,.81,0,1.86-.68,1.86h-.07l-.07,0,0,0a.36.36,0,0,0-.13.15l0,.07a.33.33,0,0,0,0,.14h.6l.55-.06h.66c.17,0,.36,0,.54.06h.87v0a.62.62,0,0,0,0-.13.42.42,0,0,0-.16-.2l0,0-.07,0h-.32c-.67,0-.7-1-.7-1.86v-1C185.11,77.72,185.31,77.72,185.52,77.72Zm-.61-4.67a2.09,2.09,0,0,1,1.48-.75c.88,0,1.9.59,1.9,2.38A2.52,2.52,0,0,1,186,77.34a3,3,0,0,1-1-.16Z"/><path d="M196,71.88a.37.37,0,0,0-.25-.19h-.3c-.94.06-1.72.06-2.43.06h-.66c-.57,0-.17,0-1.68-.08h-.18l-.07,0a.32.32,0,0,0-.2.15.13.13,0,0,0,0,0,.3.3,0,0,0,0,.12v.08h0v1.6h.15a.35.35,0,0,0,.21-.15l0,0,0-.09h0a1.27,1.27,0,0,1,.89-1.11,4.14,4.14,0,0,1,1.08-.11v3.4c0,.78,0,1.62-.65,1.62h-.17l0,0,0,0a.38.38,0,0,0-.09.09l0,0a.44.44,0,0,0,0,.1v.08h0v0h.62a2.74,2.74,0,0,0,.48-.06l.37,0,.4,0a2.84,2.84,0,0,0,.51.06h.59v0a.2.2,0,0,0,0-.11.39.39,0,0,0-.2-.2s-.05,0-.07,0l-.07,0h0c-.62,0-.66-.75-.66-1.62v-3.4c1.74,0,1.85.36,1.85,1.07v0a.29.29,0,0,0,0,.09.25.25,0,0,1,0,.07.39.39,0,0,0,.32.25h0c.17-.84.26-1.26.33-1.7,0,0,0,0,0-.06A.08.08,0,0,0,196,71.88Z"/><path d="M203.78,77.4a.48.48,0,0,0-.16-.16l-.08,0-.08,0h0c-.58-.07-.61-.5-.63-.8s0-.8,0-1.19c0-.19,0-.37,0-.55,0-.37,0-.74,0-1.11,0-.66,0-1.1.06-1.66l0,0h0a.48.48,0,0,0-.41-.07h0l-.08,0c-.27.39-.77,1.08-1.91,2.48s-1.16,1.41-1.73,2.21l-.09,0a13,13,0,0,0,.06-1.32c0-.18,0-.39,0-.63V73.46c0-1.06.21-1.33.79-1.33h.27v0a.34.34,0,0,0,0-.13.35.35,0,0,0-.19-.19l-.08,0a.84.84,0,0,0-.19,0H199c-.19,0-.37,0-.56.06h-.53c-.19,0-.37-.06-.56-.06h-.22a.65.65,0,0,0-.16,0l-.07,0a.37.37,0,0,0-.17.15s0,0,0,.08a.17.17,0,0,0,0,.12H197c.7,0,.73.49.73,2.59s0,2.61-.07,2.92v0l.43.07A53,53,0,0,0,201.91,73l.11,0a14,14,0,0,0-.12,2.15,8,8,0,0,1-.06,1.19c0,.33-.14.76-.77.78l0,0,0,0a.47.47,0,0,0-.1.11l0,.07a.32.32,0,0,0,0,.17h.59c.17,0,.34,0,.5,0a2.28,2.28,0,0,1,.36,0,2.47,2.47,0,0,1,.39,0c.17,0,.33,0,.51,0h.62a.5.5,0,0,0,0-.12S203.8,77.42,203.78,77.4Z"/><path d="M207.69,74.36v-.08c1.2-.28,1.34-1.08,1.34-1.43s-.29-1.26-1.62-1.26a3.81,3.81,0,0,0-2,.55l-.07.07a0,0,0,0,1,0,0l-.06.07c-.13.16-.16.27-.13.36l0,.08.06.06,0,0h0l.07.06a.32.32,0,0,0,.3.05l0,0a.27.27,0,0,0,.09-.1,0,0,0,0,1,0,0,1.52,1.52,0,0,1,1.3-.82,1,1,0,0,1,1,1c0,.48-.26,1.2-1.37,1.2a2.49,2.49,0,0,1-.47,0h0a.43.43,0,0,0,0,.23l0,.06a.31.31,0,0,0,.17.14l0,0h0a2.5,2.5,0,0,1,.47,0,1.43,1.43,0,0,1,.62.11,1.4,1.4,0,0,1,.69,1.36,1.49,1.49,0,0,1-.29.87,1.39,1.39,0,0,1-1,.47,1.23,1.23,0,0,1-1.07-.65.35.35,0,0,1-.06-.09l-.06-.08a.61.61,0,0,0-.07-.1.37.37,0,0,0-.35-.13l0,0a.27.27,0,0,0-.11.06h0l-.21.17-.07.08s0,0,0,0a.29.29,0,0,0,0,.22.08.08,0,0,0,0,0,.24.24,0,0,0,.06.1,2.76,2.76,0,0,0,1.85.68c1.51,0,2.59-.87,2.59-1.91C209.39,74.62,208.22,74.39,207.69,74.36Z"/><path class="cls-3" d="M213.44,74a4.83,4.83,0,0,0-1,.09v-.47c0-.78,0-1.44.66-1.44h.41V72l0-.09,0,0a.3.3,0,0,0-.16-.12l-.07,0a.94.94,0,0,0-.2,0h-.18c-.21,0-.4,0-.6.06h-.48c-.22,0-.44-.06-.66-.06H211a.57.57,0,0,0-.16,0l-.08,0a.34.34,0,0,0-.2.3v0h.23c.6,0,.75.3.75,1.42V74c0,.13,0,.26,0,.39s0,.53,0,.79v.5c0,.8-.08,1.5-.77,1.5h0l0,0,0,0a.33.33,0,0,0-.11.13l0,.08a.64.64,0,0,0,0,.14h.4c.41,0,.77,0,1.25,0a3.39,3.39,0,0,1,.54,0,5.63,5.63,0,0,0,.81.11,2,2,0,0,0,2.11-2.07C215.64,74.06,214,74,213.44,74Zm-.1,3.37c-.83,0-.91-.45-.91-1.17,0-.22,0-.45,0-.71v-1a3,3,0,0,1,.43,0c1.49,0,1.71,1,1.71,1.55A1.25,1.25,0,0,1,213.34,77.32Z"/><path d="M218.76,77.43a.35.35,0,0,0-.19-.19l-.07,0-.08,0h0c-.73,0-.65-1-.67-2V73.67c0-1.35.15-1.54.77-1.54h.25v0a.25.25,0,0,0,0-.08.31.31,0,0,0-.2-.24l-.08,0a1.06,1.06,0,0,0-.2,0h-.07c-.23,0-.44,0-.66.06h-.49c-.24,0-.48-.06-.73-.06h-.08a.57.57,0,0,0-.15,0l-.08,0a.28.28,0,0,0-.15.13l0,0a.59.59,0,0,0,0,.17h.28c.63,0,.74.37.76,1.55v1.51c0,1.06,0,2-.8,2l-.05,0a.05.05,0,0,1,0,0,.53.53,0,0,0-.1.14l0,.11v.07h0v0h.59a2.63,2.63,0,0,0,.47-.06l.38,0,.41,0a2.63,2.63,0,0,0,.49.06h.6v-.08A.41.41,0,0,0,218.76,77.43Z"/><path class="cls-2" d="M93.3,92.26a.4.4,0,0,0-.23-.26H93a3.11,3.11,0,0,1-2.8,1.68c-2,0-4.11-1.52-4.11-4.66A3.69,3.69,0,0,1,88,85.62a4.55,4.55,0,0,1,2.24-.51c1.69,0,2.17.93,2.3,1.64,0,0,0,0,0,0l0,0,0,.08a.45.45,0,0,0,.21.22.19.19,0,0,0,.1,0H93c0-.08,0-.17,0-.25,0-.44,0-1.2.07-1.76a.31.31,0,0,0,0-.08l0,0a.38.38,0,0,0-.24-.17l-.08,0h-.27l-.53,0a9,9,0,0,0-1.79-.22,6.82,6.82,0,0,0-2,.23,4.75,4.75,0,0,0-3.37,4.57c0,2.82,2.35,4.85,5.34,4.85a4.89,4.89,0,0,0,1-.12,2.36,2.36,0,0,0,2.16-1.71v-.11Z"/><path d="M97.48,88a3.11,3.11,0,0,0-3.23,3.11,2.93,2.93,0,0,0,3.08,3,3.2,3.2,0,0,0,3.21-3.25A2.9,2.9,0,0,0,97.48,88Zm0,5.67c-1.44,0-2.17-1.67-2.17-3a2,2,0,0,1,1.85-2.24c1.23,0,2.24,1.33,2.24,3.09A1.91,1.91,0,0,1,97.52,93.68Z"/><path d="M105.16,88.15a2.88,2.88,0,0,0-2.62,2.09h0c0-.18,0-.34.08-.61a14,14,0,0,1,.19-1.9c.21-1.19.49-2.25,1.41-2.25a3.73,3.73,0,0,1,1,.23,2.2,2.2,0,0,0,.68.11,2.08,2.08,0,0,0,1.66-1,.64.64,0,0,0,0-.07s0,0,0-.06a.19.19,0,0,0-.13-.23h0a.78.78,0,0,1-.83.51h0a4.07,4.07,0,0,1-.92-.19,3.39,3.39,0,0,0-.71-.11c-1.4,0-3.12,1.65-3.13,5.64a4.25,4.25,0,0,0,1.14,3.28,2.42,2.42,0,0,0,1.5.56,3.46,3.46,0,0,0,3.38-3.36A2.53,2.53,0,0,0,105.16,88.15Zm-.3,5.48c-1.12,0-2.06-1.37-2.07-2.75a2,2,0,0,1,1.85-2.08,2.24,2.24,0,0,1,2,2.51C106.61,92.94,105.7,93.63,104.86,93.63Z"/><path d="M114.06,93l0,0a.38.38,0,0,0-.28-.15h-.12a2.37,2.37,0,0,1-1.44.53,2.48,2.48,0,0,1-1.31-.33,2.82,2.82,0,0,1-1.21-2.5c0-1.71,1.13-2,1.65-2a1.1,1.1,0,0,1,.93.5l.07.07,0,0,.07.08a.42.42,0,0,0,.4.18l.08,0,.11-.08v0l.08-.06a.59.59,0,0,1,.08-.08h0l.08-.08a.44.44,0,0,0,.15-.33.13.13,0,0,0,0-.06.25.25,0,0,0,0-.07A1.85,1.85,0,0,0,112,88a3.19,3.19,0,0,0-3.28,3.21,2.91,2.91,0,0,0,2.85,2.93c.84,0,.93-.35,2.53-1.15l0,0h0S114.07,93,114.06,93Z"/><path d="M120.44,88.3a.41.41,0,0,0-.29-.18l-.16,0h-.15c-.92,0-1.68.06-2.38.06h-.65c-.57,0-.2,0-1.58-.08h-.33a.46.46,0,0,0-.24.16s0,0,0,0a.16.16,0,0,0,0,.09v1.71h.08l.12,0A.3.3,0,0,0,115,90l0,0a.16.16,0,0,0,0-.08,1.27,1.27,0,0,1,.89-1.16,4.62,4.62,0,0,1,1.08-.11V92c0,.78,0,1.61-.65,1.61h-.12l-.06,0,0,0a.45.45,0,0,0-.12.12l0,.06a.59.59,0,0,0,0,.17h.62a2.52,2.52,0,0,0,.48-.05,2.4,2.4,0,0,1,.37,0,2.6,2.6,0,0,1,.4,0,2.84,2.84,0,0,0,.51.05h.58v0a.32.32,0,0,0,0-.13.42.42,0,0,0-.18-.2l-.07,0-.07,0h0c-.63,0-.68-.74-.68-1.61V88.58c1.74,0,1.86.37,1.87,1.07,0,0,0,0,0,0h0s0,.06,0,.09,0,.06,0,.08a.41.41,0,0,0,.19.23l.08,0h.1c.16-.85.25-1.28.32-1.72a.14.14,0,0,0,0-.06A.08.08,0,0,0,120.44,88.3Z"/><path d="M125.38,91.05c-.14,0-.25,0-.61-.08v-.1a1.34,1.34,0,0,0,1.37-1.31c0-.49-.27-1.41-2-1.41-.33,0-.75,0-1.27,0s-.91,0-1.3,0c0,0,0,0-.06,0l0,0a.32.32,0,0,0-.16.28v.06h.22c.61,0,.67.6.67,1.19v.36c0,.35,0,.7,0,1,0,.19,0,.43,0,.67,0,.83-.08,1.77-.68,1.77l-.07,0,0,0a.35.35,0,0,0-.13.15l0,.1V94h.48c.37,0,.72-.05,1.07-.05.85,0,1,.16,1.7.16,1.74,0,2.07-1.05,2.08-1.7A1.42,1.42,0,0,0,125.38,91.05Zm-1.31,2.69c-.92,0-1-.51-1-1.5,0-.17,0-.35,0-.55,0-.79,0-2.09,0-3a3.16,3.16,0,0,1,.64-.06c1.15,0,1.25.72,1.26,1.19a1,1,0,0,1-1.06,1h-.08s-.06,0-.08,0l0,0a.36.36,0,0,0-.16.3s0,0,0,0v0l.33,0c1.25,0,1.53.77,1.54,1.31A1.31,1.31,0,0,1,124.07,93.74Z"/><path d="M130.7,88a3.06,3.06,0,0,0-3.15,3.11,2.91,2.91,0,0,0,2.69,3c.82,0,1.13-.29,2.44-1l.08-.07,0-.06a.34.34,0,0,0,.07-.38,0,0,0,0,1,0,0,0,0,0,0,1,0,0,3,3,0,0,1-1.86.7,2.48,2.48,0,0,1-2.35-2.72,1.85,1.85,0,0,1,0-.23c.7.06,1.46.11,2.31.11.57,0,1,0,1.55,0l.08,0,0,0,.12,0a.42.42,0,0,0,.24-.21.08.08,0,0,1,0,0,.41.41,0,0,0,0-.11A2.25,2.25,0,0,0,130.7,88Zm.09,2c-.29,0-.78,0-2.12,0a1.68,1.68,0,0,1,1.61-1.62A1.57,1.57,0,0,1,131.84,90C131.5,90,131.14,90,130.79,90Z"/><path d="M140.66,93.66l0,0-.09,0c-.66,0-.66-.79-.66-1.75V90.1c0-1.5.21-1.54.77-1.54h.18V88.5a.36.36,0,0,0-.16-.3l-.06,0-.06,0h-.28c-.18,0-.37,0-.54,0a1.42,1.42,0,0,1-.29,0,1.32,1.32,0,0,1-.28,0c-.18,0-.37,0-.54,0h-.32l-.07,0,0,0a.4.4,0,0,0-.13.13l0,0a.62.62,0,0,0,0,.18h.23c.58,0,.73.18.74,1.26v.79a9,9,0,0,1-3,0v-.79c0-1.08.16-1.26.75-1.26h.17V88.5a.36.36,0,0,0-.16-.3l-.06,0,0,0h-.28c-.19,0-.38,0-.55,0a1.37,1.37,0,0,1-.28,0,1.27,1.27,0,0,1-.28,0c-.18,0-.37,0-.55,0h-.29l-.07,0,0,0a.36.36,0,0,0-.18.3v.06h.2c.56,0,.76,0,.77,1.54v1.75c0,1,0,1.73-.66,1.75l-.08,0s0,0-.06,0a.36.36,0,0,0-.2.3V94h.57c.17,0,.34,0,.51-.05a2.31,2.31,0,0,1,.37,0l.38,0c.17,0,.34.05.52.05h.47a0,0,0,0,1,0,0,.17.17,0,0,0,0-.07.31.31,0,0,0-.18-.26l0,0-.16,0c-.5-.12-.53-.77-.53-1.46v-1c1,0,1.35,0,1.52,0s.5,0,1.52,0v1c0,.72,0,1.4-.61,1.47h0a.45.45,0,0,0-.11,0s0,0-.05,0a.33.33,0,0,0-.15.13l0,0a.44.44,0,0,0,0,.1V94h.52c.18,0,.35,0,.52-.05a2.43,2.43,0,0,1,.38,0l.38,0c.16,0,.34.05.5.05h.55V94A.36.36,0,0,0,140.66,93.66Z"/><path d="M148.56,93.66l-.05,0-.08,0c-.67,0-.67-.79-.68-1.75V90.1c0-1.5.22-1.54.78-1.54h.18s0,0,0,0v0a.35.35,0,0,0-.17-.3l-.05,0-.07,0h-.28c-.18,0-.37,0-.54,0a1.42,1.42,0,0,1-.29,0,1.32,1.32,0,0,1-.28,0c-.18,0-.37,0-.55,0h-.31l-.07,0,0,0a.32.32,0,0,0-.13.13l0,.06a.52.52,0,0,0,0,.17h.22c.59,0,.74.18.75,1.26v.79a9,9,0,0,1-3,0v-.79c0-1.08.16-1.26.75-1.26h.17v-.08a.32.32,0,0,0-.16-.28l-.05,0-.06,0h-.28c-.19,0-.38,0-.55,0a1.32,1.32,0,0,1-.28,0,1.42,1.42,0,0,1-.29,0c-.17,0-.36,0-.54,0h-.28l-.08,0,0,0a.36.36,0,0,0-.18.3v.06h.2c.56,0,.76,0,.77,1.54v1.75c0,1,0,1.73-.65,1.75l-.09,0s0,0-.06,0a.36.36,0,0,0-.2.3V94h.57c.17,0,.35,0,.5-.05l.38,0a2.43,2.43,0,0,1,.38,0c.17,0,.34.05.52.05h.48v0a.15.15,0,0,0,0-.07.37.37,0,0,0-.18-.26l-.05,0-.16,0c-.49-.12-.53-.77-.53-1.46v-1c1,0,1.34,0,1.52,0s.5,0,1.52,0v1c0,.72,0,1.4-.61,1.47h0a.29.29,0,0,0-.1,0l-.06,0a.4.4,0,0,0-.15.13l0,.06,0,.1V94h.53c.18,0,.35,0,.52-.05a2.43,2.43,0,0,1,.38,0,2.53,2.53,0,0,1,.38,0c.16,0,.33.05.5.05h.55V94A.37.37,0,0,0,148.56,93.66Z"/><path class="cls-3" d="M153,88a3.1,3.1,0,0,0-3.23,3.11,2.92,2.92,0,0,0,3.08,3A3.19,3.19,0,0,0,156,90.9,2.9,2.9,0,0,0,153,88Zm0,5.67c-1.44,0-2.17-1.67-2.17-3a2,2,0,0,1,1.84-2.24c1.23,0,2.24,1.33,2.24,3.09A1.91,1.91,0,0,1,153,93.68Z"/><path d="M162.26,93a.38.38,0,0,0-.27-.18h-.11a2.37,2.37,0,0,1-1.45.54,2.52,2.52,0,0,1-1.32-.33,2.82,2.82,0,0,1-1.21-2.5c0-1.71,1.14-2,1.66-2a1.08,1.08,0,0,1,.92.5l.08.07,0,0,.07.08a.42.42,0,0,0,.41.18l.07,0a.38.38,0,0,0,.11-.07v0l.08-.06a.23.23,0,0,1,.07-.08s0,0,0,0l.08-.08a.5.5,0,0,0,.16-.34.43.43,0,0,1,0-.05s0,0,0-.07A1.87,1.87,0,0,0,160.2,88a3.19,3.19,0,0,0-3.28,3.21,2.91,2.91,0,0,0,2.86,2.93c.84,0,.92-.35,2.51-1.14,0,0,0,0,0,0Z"/><path d="M168.67,88.28a.44.44,0,0,0-.29-.16l-.15,0h-.15c-.92,0-1.69.06-2.39.06H165c-.56,0-.2,0-1.56-.08h-.33a.43.43,0,0,0-.25.18.41.41,0,0,0,0,.08.49.49,0,0,0,0,.16h0v1.59h.09l.13,0a.33.33,0,0,0,.13-.09s0,0,0,0,0,0,0,0a1.29,1.29,0,0,1,.89-1.22,4.62,4.62,0,0,1,1.08-.11V92c0,.78,0,1.61-.65,1.61h-.1l-.06,0,0,0a.35.35,0,0,0-.14.16l0,.1V94h.6a2.52,2.52,0,0,0,.48-.05,2.43,2.43,0,0,1,.38,0,2.56,2.56,0,0,1,.39,0,3,3,0,0,0,.52.05h.59a.31.31,0,0,0,0-.13s0,0,0-.06a.41.41,0,0,0-.16-.16s0,0-.06,0a.15.15,0,0,1-.07,0h0c-.64,0-.68-.74-.68-1.61V88.58c1.74,0,1.85.37,1.86,1.07v0h0v0s0,.07,0,.1a.43.43,0,0,0,.2.28l.08,0h.07c.18-.89.27-1.31.34-1.77l0,0S168.67,88.29,168.67,88.28Z"/><path d="M176.43,93.84a.39.39,0,0,0-.17-.17l-.06,0-.09,0c-.59-.06-.62-.49-.63-.79s0-.81,0-1.2V90c0-.56,0-1,0-1.41h0a.17.17,0,0,1,0-.07,1,1,0,0,0,0-.11s0,0,0,0a.44.44,0,0,0-.35-.2H175c-.25.35-.71,1-2,2.64-1.08,1.33-1.17,1.41-1.74,2.21l-.09,0a13,13,0,0,0,.06-1.32V90.07a1.21,1.21,0,0,1,0-.19c0-1,.21-1.32.79-1.32h.28v0h0a.27.27,0,0,0,0-.12.37.37,0,0,0-.22-.2l-.08,0-.19,0h-.13c-.2,0-.38,0-.56,0a1.27,1.27,0,0,1-.27,0,1.18,1.18,0,0,1-.27,0c-.19,0-.37,0-.56,0h-.37l-.07,0-.06,0a.25.25,0,0,0-.11.12l0,.05a.5.5,0,0,0,0,.19h.28c.7,0,.73.48.73,2.59s0,2.6-.07,2.92v0l.43.07a50.3,50.3,0,0,0,3.85-4.71l.11,0a14.22,14.22,0,0,0-.12,2.16,7.91,7.91,0,0,1-.06,1.18c0,.32-.13.74-.72.78l-.06,0,0,0a.37.37,0,0,0-.12.13.19.19,0,0,0,0,.07.23.23,0,0,0,0,.14h.59c.17,0,.34,0,.5-.05l.37,0c.13,0,.25,0,.37,0s.34.05.52.05h.61a.25.25,0,0,0,0-.08A.29.29,0,0,0,176.43,93.84Z"/></g></g></svg>